HIERARCHY
ROOT Hips
{
  OFFSET 365.14 88.179 197.519
  CHANNELS 6 Xposition Yposition Zposition Zrotation Xrotation Yrotation
  JOINT RightUpLeg
  {
    OFFSET -9.25084 -1.53971 -0.0324706
    CHANNELS 3 Zrotation Xrotation Yrotation
    JOINT RightLeg
    {
      OFFSET 0.0147984 -41.8767 0.0743683
      CHANNELS 3 Zrotation Xrotation Yrotation
      JOINT RightFoot
      {
        OFFSET 0.58129 -42.7665 -0.0966173
        CHANNELS 3 Zrotation Xrotation Yrotation
        End Site
        {
          OFFSET 0 -7.69 17.5
        }
      }
    }
  }
  JOINT LeftUpLeg
  {
    OFFSET 9.27183 -1.63567 0.0208533
    CHANNELS 3 Zrotation Xrotation Yrotation
    JOINT LeftLeg
    {
      OFFSET 0.0380064 -41.894 -0.0332375
      CHANNELS 3 Zrotation Xrotation Yrotation
      JOINT LeftFoot
      {
        OFFSET -0.00137207 -40.7578 0.276477
        CHANNELS 3 Zrotation Xrotation Yrotation
        End Site
        {
          OFFSET 0 -7.69 17.5
        }
      }
    }
  }
  JOINT Spine
  {
    OFFSET 0.0273715 14.2953 0.0132618
    CHANNELS 3 Zrotation Xrotation Yrotation
    JOINT Spine1
    {
      OFFSET 0.0356242 9.71545 0.0178671
      CHANNELS 3 Zrotation Xrotation Yrotation
      JOINT Spine2
      {
        OFFSET 0.0275401 10.1205 0.00234803
        CHANNELS 3 Zrotation Xrotation Yrotation
        JOINT Spine3
        {
          OFFSET 0.0388833 9.71499 0.00573168
          CHANNELS 3 Zrotation Xrotation Yrotation
          JOINT Neck
          {
            OFFSET 0.0812761 10.3796 0.11061
            CHANNELS 3 Zrotation Xrotation Yrotation
            JOINT Head
            {
              OFFSET 0.0694951 9.4737 0.0873993
              CHANNELS 3 Zrotation Xrotation Yrotation
              End Site
              {
                OFFSET 0 15.95 0
              }
            }
          }
          JOINT RightShoulder
          {
            OFFSET -3.16911 6.92878 0.0176909
            CHANNELS 3 Zrotation Xrotation Yrotation
            JOINT RightArm
            {
              OFFSET -12.7939 0.0472484 0.0511932
              CHANNELS 3 Zrotation Xrotation Yrotation
              JOINT RightForeArm
              {
                OFFSET -26.5086 -0.00989181 0.0576382
                CHANNELS 3 Zrotation Xrotation Yrotation
                JOINT RightHand
                {
                  OFFSET -26.0357 0.339815 -0.212656
                  CHANNELS 3 Zrotation Xrotation Yrotation
                  JOINT RightHandThumb1
                  {
                    OFFSET -2.48905 0.190105 3.12053
                    CHANNELS 3 Zrotation Xrotation Yrotation
                    JOINT RightHandThumb2
                    {
                      OFFSET -3.68274 0 0
                      CHANNELS 3 Zrotation Xrotation Yrotation
                      JOINT RightHandThumb3
                      {
                        OFFSET -2.55832 0 0
                        CHANNELS 3 Zrotation Xrotation Yrotation
                        End Site
                        {
                          OFFSET -2.194 0 0
                        }
                      }
                    }
                  }
                  JOINT RightInHandIndex
                  {
                    OFFSET -3.22368 0.508421 1.97842
                    CHANNELS 3 Zrotation Xrotation Yrotation
                    JOINT RightHandIndex1
                    {
                      OFFSET -5.21684 -0.091368 0.999158
                      CHANNELS 3 Zrotation Xrotation Yrotation
                      JOINT RightHandIndex2
                      {
                        OFFSET -3.61937 0 0
                        CHANNELS 3 Zrotation Xrotation Yrotation
                        JOINT RightHandIndex3
                        {
                          OFFSET -2.0521 0 0
                          CHANNELS 3 Zrotation Xrotation Yrotation
                          End Site
                          {
                            OFFSET -1.805 0 0
                          }
                        }
                      }
                    }
                  }
                  JOINT RightInHandMiddle
                  {
                    OFFSET -3.38211 0.517263 0.756737
                    CHANNELS 3 Zrotation Xrotation Yrotation
                    JOINT RightHandMiddle1
                    {
                      OFFSET -5.17411 -0.084 0.313895
                      CHANNELS 3 Zrotation Xrotation Yrotation
                      JOINT RightHandMiddle2
                      {
                        OFFSET -3.94947 0 0
                        CHANNELS 3 Zrotation Xrotation Yrotation
                        JOINT RightHandMiddle3
                        {
                          OFFSET -2.47579 0 0
                          CHANNELS 3 Zrotation Xrotation Yrotation
                          End Site
                          {
                            OFFSET -1.975 0 0
                          }
                        }
                      }
                    }
                  }
                  JOINT RightInHandRing
                  {
                    OFFSET -3.36516 0.537895 -0.128947
                    CHANNELS 3 Zrotation Xrotation Yrotation
                    JOINT RightHandRing1
                    {
                      OFFSET -4.63474 -0.022105 -0.478947
                      CHANNELS 3 Zrotation Xrotation Yrotation
                      JOINT RightHandRing2
                      {
                        OFFSET -3.44238 0 0
                        CHANNELS 3 Zrotation Xrotation Yrotation
                        JOINT RightHandRing3
                        {
                          OFFSET -2.3881 0 0
                          CHANNELS 3 Zrotation Xrotation Yrotation
                          End Site
                          {
                            OFFSET -1.857 0 0
                          }
                        }
                      }
                    }
                  }
                  JOINT RightInHandPinky
                  {
                    OFFSET -3.16105 0.469368 -1.20179
                    CHANNELS 3 Zrotation Xrotation Yrotation
                    JOINT RightHandPinky1
                    {
                      OFFSET -4.14105 -0.022105 -1.09053
                      CHANNELS 3 Zrotation Xrotation Yrotation
                      JOINT RightHandPinky2
                      {
                        OFFSET -2.75653 0 0
                        CHANNELS 3 Zrotation Xrotation Yrotation
                        JOINT RightHandPinky3
                        {
                          OFFSET -1.74189 0 0
                          CHANNELS 3 Zrotation Xrotation Yrotation
                          End Site
                          {
                            OFFSET -1.645 0 0
                          }
                        }
                      }
                    }
                  }
                }
              }
            }
          }
          JOINT LeftShoulder
          {
            OFFSET 3.24184 6.89832 -0.0228965
            CHANNELS 3 Zrotation Xrotation Yrotation
            JOINT LeftArm
            {
              OFFSET 12.8376 -0.0155948 -0.0448787
              CHANNELS 3 Zrotation Xrotation Yrotation
              JOINT LeftForeArm
              {
                OFFSET 26.5019 -0.0237061 -0.00609661
                CHANNELS 3 Zrotation Xrotation Yrotation
                JOINT LeftHand
                {
                  OFFSET 25.9931 -0.0767526 0.00928659
                  CHANNELS 3 Zrotation Xrotation Yrotation
                  JOINT LeftHandThumb1
                  {
                    OFFSET 2.48905 0.190105 3.12053
                    CHANNELS 3 Zrotation Xrotation Yrotation
                    JOINT LeftHandThumb2
                    {
                      OFFSET 3.68274 0 0
                      CHANNELS 3 Zrotation Xrotation Yrotation
                      JOINT LeftHandThumb3
                      {
                        OFFSET 2.55832 0 0
                        CHANNELS 3 Zrotation Xrotation Yrotation
                        End Site
                        {
                          OFFSET 2.194 0 0
                        }
                      }
                    }
                  }
                  JOINT LeftInHandIndex
                  {
                    OFFSET 3.22368 0.508421 1.97842
                    CHANNELS 3 Zrotation Xrotation Yrotation
                    JOINT LeftHandIndex1
                    {
                      OFFSET 5.21684 -0.091368 0.999158
                      CHANNELS 3 Zrotation Xrotation Yrotation
                      JOINT LeftHandIndex2
                      {
                        OFFSET 3.61937 0 0
                        CHANNELS 3 Zrotation Xrotation Yrotation
                        JOINT LeftHandIndex3
                        {
                          OFFSET 2.0521 0 0
                          CHANNELS 3 Zrotation Xrotation Yrotation
                          End Site
                          {
                            OFFSET 1.805 0 0
                          }
                        }
                      }
                    }
                  }
                  JOINT LeftInHandMiddle
                  {
                    OFFSET 3.38211 0.517263 0.756737
                    CHANNELS 3 Zrotation Xrotation Yrotation
                    JOINT LeftHandMiddle1
                    {
                      OFFSET 5.17411 -0.084 0.313895
                      CHANNELS 3 Zrotation Xrotation Yrotation
                      JOINT LeftHandMiddle2
                      {
                        OFFSET 3.94947 0 0
                        CHANNELS 3 Zrotation Xrotation Yrotation
                        JOINT LeftHandMiddle3
                        {
                          OFFSET 2.47579 0 0
                          CHANNELS 3 Zrotation Xrotation Yrotation
                          End Site
                          {
                            OFFSET 1.975 0 0
                          }
                        }
                      }
                    }
                  }
                  JOINT LeftInHandRing
                  {
                    OFFSET 3.36516 0.537895 -0.128947
                    CHANNELS 3 Zrotation Xrotation Yrotation
                    JOINT LeftHandRing1
                    {
                      OFFSET 4.63474 -0.022105 -0.478947
                      CHANNELS 3 Zrotation Xrotation Yrotation
                      JOINT LeftHandRing2
                      {
                        OFFSET 3.44238 0 0
                        CHANNELS 3 Zrotation Xrotation Yrotation
                        JOINT LeftHandRing3
                        {
                          OFFSET 2.3881 0 0
                          CHANNELS 3 Zrotation Xrotation Yrotation
                          End Site
                          {
                            OFFSET 1.857 0 0
                          }
                        }
                      }
                    }
                  }
                  JOINT LeftInHandPinky
                  {
                    OFFSET 3.16105 0.469368 -1.20179
                    CHANNELS 3 Zrotation Xrotation Yrotation
                    JOINT LeftHandPinky1
                    {
                      OFFSET 4.14105 -0.022105 -1.09053
                      CHANNELS 3 Zrotation Xrotation Yrotation
                      JOINT LeftHandPinky2
                      {
                        OFFSET 2.75653 0 0
                        CHANNELS 3 Zrotation Xrotation Yrotation
                        JOINT LeftHandPinky3
                        {
                          OFFSET 1.74189 0 0
                          CHANNELS 3 Zrotation Xrotation Yrotation
                          End Site
                          {
                            OFFSET 1.645 0 0
                          }
                        }
                      }
                    }
                  }
                }
              }
            }
          }
        }
      }
    }
  }
}
MOTION
Frames: 3
Frame Time: 0.00833333
4.500597368057131575e+02 1.800916986256806754e-02 4.621769235061626291e-02 1.265017971260905816e-01 2.123972092947706836e-01 5.108455735567209999e-01 -3.882001098391197336e-01 -8.945347536607706207e-02 -7.552617007523216852e-01 6.640547145391748063e-02 -3.148765633524970575e-02 -2.941400404232277083e-02 -2.778067286511513162e-02 -8.191271840114680916e-03 -3.865043385636673240e-02 -1.998010665010490905e-01 -3.185590699390887792e-01 -6.286192728557157272e-01 1.066963179333898504e-01 -5.600594570803805669e-03 -8.444336038912084175e-02 5.730300286265709031e-02 5.255418637711068569e-02 7.696439832110830992e-02 3.506963319200465667e-01 -1.544986953043420153e-01 -4.404618176776010086e-01 7.300499073620794754e-02 -4.144247607731191274e-02 -9.581840408405563336e-02 1.199817931055241482e-01 -5.908961940128433510e-02 -1.489923104576296176e-01 -1.465438243439348177e-02 8.806119686177983630e-03 9.480270297832294260e-03 -1.828566474324048660e-02 3.962851029941780699e-03 -3.552080953988567390e-03 -1.887730942337744189e-01 1.386518222166736591e-01 1.598470554280559119e-01 -4.088656706930342000e-01 -2.003661461298011925e-02 3.016417457490109810e-01 2.111641193540065298e-01 -6.393680712824699464e-02 -2.784000903545328365e-01 2.235442080884136318e-01 3.976707218832433721e-01 1.593597088254756489e-01 -9.069218806659518073e-01 7.636094562921379447e-01 -1.070541877740206704e+00 0.000000000000000000e+00 0.000000000000000000e+00 0.000000000000000000e+00 1.160095169302414777e-15 2.425923333526324580e-16 0.000000000000000000e+00 2.948171209367782534e-15 1.127909269044811277e-15 0.000000000000000000e+00 -3.251039859914186621e-15 5.991022287963344607e-15 -2.885044121451245798e-15 0.000000000000000000e+00 0.000000000000000000e+00 0.000000000000000000e+00 0.000000000000000000e+00 2.255107028122860726e-15 1.307817083393507714e-14 0.000000000000000000e+00 -1.653271608621971867e-15 -4.426526510025375686e-15 -3.251039859914186621e-15 5.991022287963344607e-15 -2.885044121451245798e-15 0.000000000000000000e+00 9.264426536969355338e-15 2.242310796879129587e-14 0.000000000000000000e+00 -6.089796712738150671e-16 1.063205871260588178e-14 0.000000000000000000e+00 2.460167714242999920e-15 3.010227560163118738e-15 -3.251039859914186621e-15 5.991022287963344607e-15 -2.885044121451245798e-15 0.000000000000000000e+00 0.000000000000000000e+00 0.000000000000000000e+00 0.000000000000000000e+00 -3.473402417687252264e-15 1.687867354764683615e-16 0.000000000000000000e+00 -4.237820768301038686e-17 -1.209317761838108333e-14 -3.251039859914186621e-15 5.991022287963344607e-15 -2.885044121451245798e-15 0.000000000000000000e+00 0.000000000000000000e+00 0.000000000000000000e+00 0.000000000000000000e+00 -2.469602948925117850e-15 -2.646277273585057051e-15 0.000000000000000000e+00 5.120201761862639371e-17 -9.511894193653563593e-15 -2.265698992094813610e-02 -1.156737764470281427e-01 -3.250506158831226733e-01 -6.002781725375849753e-01 1.177684813521917978e-01 5.591032799695240252e-01 5.379658096978729986e-01 -2.594421738410800371e-01 6.998253415764518204e-01 -1.813190467525274130e-01 -2.731262739944642637e-02 2.483967902441574019e-02 0.000000000000000000e+00 0.000000000000000000e+00 0.000000000000000000e+00 7.119612870147430621e-16 -3.085858885607281907e-15 0.000000000000000000e+00 -4.650777171909448005e-15 6.042184244424020236e-16 0.000000000000000000e+00 8.422464302903561134e-16 -1.342866094205276852e-15 7.363002926191525093e-16 0.000000000000000000e+00 0.000000000000000000e+00 0.000000000000000000e+00 0.000000000000000000e+00 4.027408365216398745e-15 2.301808613464412511e-15 0.000000000000000000e+00 1.733218859032905043e-15 7.232375371878222436e-16 8.422464302903561134e-16 -1.342866094205276852e-15 7.363002926191525093e-16 0.000000000000000000e+00 -5.164883427328666706e-15 6.532982674325209387e-16 0.000000000000000000e+00 -1.918090020124910967e-15 -1.339808961132166429e-16 0.000000000000000000e+00 1.878965694584367557e-15 3.323303474702983959e-15 8.422464302903561134e-16 -1.342866094205276852e-15 7.363002926191525093e-16 0.000000000000000000e+00 0.000000000000000000e+00 0.000000000000000000e+00 0.000000000000000000e+00 -2.742653083142341374e-15 8.641575573889945209e-16 0.000000000000000000e+00 3.264992914447701221e-15 -2.129378979057787382e-15 8.422464302903561134e-16 -1.342866094205276852e-15 7.363002926191525093e-16 0.000000000000000000e+00 0.000000000000000000e+00 0.000000000000000000e+00 0.000000000000000000e+00 -2.556628448557782578e-15 2.610662998983680871e-15 0.000000000000000000e+00 4.667180855626905479e-15 -2.834354630794695667e-15
4.500510788538397833e+02 1.558076092279560114e-02 2.770268872286116985e-02 1.005864538244732598e-01 1.752765717765896458e-01 3.755470723768866703e-01 -2.538613846552080777e-01 -8.663369790156733030e-02 -5.312645148743379009e-01 4.107973947767482731e-02 -1.429825088755011346e-02 -2.744872952355557894e-02 -2.063339540549583712e-02 -1.134895124660096656e-02 -3.878596346072241824e-02 -1.510972564014055330e-01 -2.607058948314553981e-01 -4.722070295761687242e-01 1.120409592093081358e-01 -3.819139726189329630e-03 -7.907020113554424912e-02 4.511173719099671742e-02 5.257671370786866361e-02 6.159928238593904981e-02 2.082797097477660508e-01 -9.936243650576578879e-02 -2.890939333588555815e-01 4.246822496756827436e-02 -2.484104732338923358e-02 -6.372911714407335226e-02 6.987001826583554009e-02 -3.432555946733426705e-02 -9.952605273556749954e-02 -8.748006238437201418e-03 3.682363752669839344e-03 8.644280812524121616e-03 -1.100360438336382696e-02 4.209562074390799102e-04 -5.730379792438398609e-05 -9.848588610192503257e-02 3.901114204803601132e-02 1.250719662517482123e-01 -2.931419816570290382e-01 -1.053297751926293713e-01 2.268342381362078164e-01 3.012565645384737700e-01 -1.884747246488103767e-01 -3.539005547554125997e-01 -1.211719116186485423e-01 5.786466250284207913e-01 -2.414790256722291750e-01 -6.621458121512535655e-01 5.556299997690933301e-01 -8.301106250423808675e-01 0.000000000000000000e+00 0.000000000000000000e+00 0.000000000000000000e+00 1.278819511460212923e-15 3.530951367028938678e-16 0.000000000000000000e+00 2.795314927392626917e-15 2.189052793279354572e-15 0.000000000000000000e+00 -2.956698009928665740e-15 6.397061545973133663e-15 -3.175085757655159930e-15 0.000000000000000000e+00 0.000000000000000000e+00 0.000000000000000000e+00 0.000000000000000000e+00 4.004828390034699951e-15 1.884432677747505707e-14 0.000000000000000000e+00 -3.118140149935634661e-15 -1.005296457465640801e-15 -2.956698009928665740e-15 6.397061545973133663e-15 -3.175085757655159930e-15 0.000000000000000000e+00 7.349314303160184987e-15 1.861786557767395502e-14 0.000000000000000000e+00 2.003103208028603034e-15 1.534528886416903357e-14 0.000000000000000000e+00 3.842894260753149600e-15 4.838052226844424825e-15 -2.956698009928665740e-15 6.397061545973133663e-15 -3.175085757655159930e-15 0.000000000000000000e+00 0.000000000000000000e+00 0.000000000000000000e+00 0.000000000000000000e+00 -2.365810229414557566e-15 1.682231946880180911e-15 0.000000000000000000e+00 -1.802057739396233476e-16 -9.444191348109660391e-15 -2.956698009928665740e-15 6.397061545973133663e-15 -3.175085757655159930e-15 0.000000000000000000e+00 0.000000000000000000e+00 0.000000000000000000e+00 0.000000000000000000e+00 1.107237481413745122e-15 -3.615076874323252140e-15 0.000000000000000000e+00 1.015852884462072596e-15 -6.921025693681796426e-15 6.093661050447081451e-02 -1.910554423259568091e-01 -3.327080938196973481e-01 -5.525789962068670125e-01 1.208616350096100717e-01 5.236025468838543251e-01 5.395541602476350285e-01 -3.303134914984960924e-01 6.667836112711020835e-01 -1.329566676836724248e-01 -1.981978426245528668e-02 3.414265239034280919e-02 0.000000000000000000e+00 0.000000000000000000e+00 0.000000000000000000e+00 -2.191070591926943252e-15 -1.429740721598714883e-15 0.000000000000000000e+00 -7.379284864765471047e-15 1.127103147822816810e-15 0.000000000000000000e+00 7.496939547116350889e-16 -1.568527854792079400e-15 4.382171907481539198e-16 0.000000000000000000e+00 0.000000000000000000e+00 0.000000000000000000e+00 0.000000000000000000e+00 3.330638202191449629e-15 2.265644058830566887e-16 0.000000000000000000e+00 1.434273389409766889e-15 -3.280920694196746669e-16 7.496939547116350889e-16 -1.568527854792079400e-15 4.382171907481539198e-16 0.000000000000000000e+00 -3.855835080138823006e-15 -6.904055515355469632e-16 0.000000000000000000e+00 -1.116499529097607401e-15 -7.344215880771033442e-16 0.000000000000000000e+00 1.590522205571340256e-15 6.993522861389572736e-16 7.496939547116350889e-16 -1.568527854792079400e-15 4.382171907481539198e-16 0.000000000000000000e+00 0.000000000000000000e+00 0.000000000000000000e+00 0.000000000000000000e+00 -2.494227207116660551e-15 -1.155244871102813862e-15 0.000000000000000000e+00 1.860901795372046128e-15 -3.548459937812714412e-15 7.496939547116350889e-16 -1.568527854792079400e-15 4.382171907481539198e-16 0.000000000000000000e+00 0.000000000000000000e+00 0.000000000000000000e+00 0.000000000000000000e+00 -3.242642663513043031e-15 2.031430148508849294e-15 0.000000000000000000e+00 4.940800167051321661e-15 -4.247991769458168032e-15
4.500421044491644125e+02 1.278760120391136609e-02 1.333093086977173158e-02 7.129366886495781819e-02 1.311810197752725504e-01 2.472195217032658598e-01 -1.281382871581039085e-01 -7.366393813435294369e-02 -3.224371916940939609e-01 1.367866343171254655e-02 -3.737678667089518528e-03 -1.862860329232574746e-02 -1.090737681555875582e-02 -1.100691757329560691e-02 -3.601125850054706645e-02 -1.060360495569706157e-01 -1.940131214021937056e-01 -3.228228821790707914e-01 1.104155812304149636e-01 -8.632102118085582115e-04 -6.639534520019306496e-02 3.180468805124799653e-02 4.930354959523407243e-02 4.290392232110029624e-02 6.236387606710475096e-02 -3.879342159261608969e-02 -1.404903904905682177e-01 1.129724446414926212e-02 -6.043842868179205401e-03 -3.278679627294200927e-02 1.875308389728340408e-02 -5.866033525805390211e-03 -5.213633465689315738e-02 -2.073873216546970842e-03 -1.735432872164945593e-03 6.830196675356168742e-03 -3.230687440129653525e-03 -3.714708343338255555e-03 1.910092760491797093e-03 6.219168743759884155e-04 -6.298256285712133806e-02 7.449804186282107943e-02 -1.555498722705120351e-01 -1.873121045821541653e-01 1.411693294315451985e-01 3.654361707722710850e-01 -2.787384203114328107e-01 -3.958084217656791526e-01 -5.151130797789404969e-01 7.509790266424178906e-01 -6.923767160953517852e-01 -2.919214896644874990e-01 2.603220040300542326e-01 -4.445007432006332637e-01 0.000000000000000000e+00 0.000000000000000000e+00 0.000000000000000000e+00 1.903681352795912331e-15 2.712050269957660565e-16 0.000000000000000000e+00 2.465400355085535519e-15 3.058087379579569124e-15 0.000000000000000000e+00 -2.581040664640556817e-15 6.501197195186203245e-15 -3.360856165978508438e-15 0.000000000000000000e+00 0.000000000000000000e+00 0.000000000000000000e+00 0.000000000000000000e+00 5.827905268071892735e-15 2.443327984682181601e-14 0.000000000000000000e+00 -4.358548958634681339e-15 2.851488888086385079e-15 -2.581040664640556817e-15 6.501197195186203245e-15 -3.360856165978508438e-15 0.000000000000000000e+00 4.767196257758993410e-15 1.315870908079956078e-14 0.000000000000000000e+00 4.690396359660578906e-15 1.950056832330651440e-14 0.000000000000000000e+00 5.249101060977645423e-15 6.975991704944545120e-15 -2.581040664640556817e-15 6.501197195186203245e-15 -3.360856165978508438e-15 0.000000000000000000e+00 0.000000000000000000e+00 0.000000000000000000e+00 0.000000000000000000e+00 -8.444983393386536475e-16 2.533946029594702211e-15 0.000000000000000000e+00 -2.049704594087194864e-16 -5.498521014542106350e-15 -2.581040664640556817e-15 6.501197195186203245e-15 -3.360856165978508438e-15 0.000000000000000000e+00 0.000000000000000000e+00 0.000000000000000000e+00 0.000000000000000000e+00 4.864672604380047375e-15 -5.429077133491368185e-15 0.000000000000000000e+00 1.911617126028191260e-15 -3.301768177762439764e-15 1.491924419966248194e-01 -2.721919872343878666e-01 -3.294959854394757803e-01 -4.879292734328474213e-01 1.226519012361920596e-01 4.800910500465010444e-01 4.968447160397697071e-01 -3.353155491185098036e-01 5.808249095808923901e-01 -7.908359494818303914e-02 -4.539224799430002788e-02 4.543673588789740037e-02 0.000000000000000000e+00 0.000000000000000000e+00 0.000000000000000000e+00 -5.062241627357541284e-15 6.665884276517772698e-16 0.000000000000000000e+00 -9.440125797601550253e-15 1.710293743431169190e-15 0.000000000000000000e+00 5.936673774789552813e-16 -1.829080486263328835e-15 1.458624864801227696e-16 0.000000000000000000e+00 0.000000000000000000e+00 0.000000000000000000e+00 0.000000000000000000e+00 2.416970997888899083e-15 -2.157403167141420646e-15 0.000000000000000000e+00 9.434773955457487408e-16 -1.403333015996052576e-15 5.936673774789552813e-16 -1.829080486263328835e-15 1.458624864801227696e-16 0.000000000000000000e+00 -2.186012225709249645e-15 -2.227419151693267419e-15 0.000000000000000000e+00 -1.885464378338218280e-16 -1.504522128447048670e-15 0.000000000000000000e+00 1.101953656189495178e-15 -2.198375510532350218e-15 5.936673774789552813e-16 -1.829080486263328835e-15 1.458624864801227696e-16 0.000000000000000000e+00 0.000000000000000000e+00 0.000000000000000000e+00 0.000000000000000000e+00 -1.963893716768511538e-15 -3.322441375250089570e-15 0.000000000000000000e+00 2.412321577021568317e-16 -5.060846750916435471e-15 5.936673774789552813e-16 -1.829080486263328835e-15 1.458624864801227696e-16 0.000000000000000000e+00 0.000000000000000000e+00 0.000000000000000000e+00 0.000000000000000000e+00 -3.735561484110267481e-15 1.005969329861732580e-15 0.000000000000000000e+00 4.769165654277365685e-15 -5.714530353063737088e-15
